<svg xmlns="http://www.w3.org/2000/svg" viewBox="0 0 400 380" style="background:white">
  <style>
    text { font-family: 'Inter', 'Segoe UI', system-ui, sans-serif; }
    .shape { fill: none; stroke: #1a1a1a; stroke-width: 2; stroke-linejoin: round; }
    .shape-fill { stroke: #1a1a1a; stroke-width: 2; stroke-linejoin: round; }
    .label { fill: #1a1a1a; font-size: 15px; font-weight: 700; }
    .value { fill: #1565C0; font-size: 13px; font-weight: 600; }
    .dim { fill: #666; font-size: 12px; }
    .dashed { stroke-dasharray: 6,4; stroke: #888; stroke-width: 1.5; }
    .dotted { stroke-dasharray: 2,3; stroke: #aaa; stroke-width: 1; }
    .hatched { fill: url(#hatch); opacity: 0.4; }
    .angle-arc { fill: none; stroke: #E65100; stroke-width: 1.8; }
    .angle-fill { fill: #FFF3E0; stroke: #E65100; stroke-width: 1; opacity: 0.5; }
    .right-angle { fill: none; stroke: #333; stroke-width: 1.5; }
    .grid { stroke: #e0e0e0; stroke-width: 0.5; }
    .axis { stroke: #333; stroke-width: 1.5; }
    .point { fill: #D32F2F; }
    .arrow { fill: #333; stroke: #333; stroke-width: 1.5; }
    @media (prefers-color-scheme: dark) {
      svg { background: #1a1a1a; }
      .shape { stroke: #e0e0e0; }
      .shape-fill { stroke: #e0e0e0; }
      .label { fill: #e0e0e0; }
      .value { fill: #64B5F6; }
      .dim { fill: #999; }
      .dashed { stroke: #aaa; }
      .dotted { stroke: #777; }
      .right-angle { stroke: #ccc; }
      .grid { stroke: #333; }
      .axis { stroke: #e0e0e0; }
      .point { fill: #EF5350; }
      .arrow { fill: #e0e0e0; stroke: #e0e0e0; }
      .angle-arc { stroke: #FF9800; }
      .angle-fill { fill: #3E2723; stroke: #FF9800; }
    }
  </style>
  <defs>
    <pattern id="hatch" patternUnits="userSpaceOnUse" width="8" height="8" patternTransform="rotate(45)">
      <line x1="0" y1="0" x2="0" y2="8" stroke="#1565C0" stroke-width="1.5"/>
    </pattern>
    <pattern id="hatch-dark" patternUnits="userSpaceOnUse" width="8" height="8" patternTransform="rotate(45)">
      <line x1="0" y1="0" x2="0" y2="8" stroke="#64B5F6" stroke-width="1.5"/>
    </pattern>
    <marker id="arrowhead" markerWidth="10" markerHeight="7" refX="10" refY="3.5" orient="auto">
      <polygon points="0 0, 10 3.5, 0 7" class="arrow"/>
    </marker>
  </defs>
  <line x1="165" y1="30" x2="165" y2="275" class="grid"/>
  <line x1="200" y1="30" x2="200" y2="275" class="grid"/>
  <line x1="235" y1="30" x2="235" y2="275" class="grid"/>
  <line x1="270" y1="30" x2="270" y2="275" class="grid"/>
  <line x1="305" y1="30" x2="305" y2="275" class="grid"/>
  <line x1="340" y1="30" x2="340" y2="275" class="grid"/>
  <line x1="375" y1="30" x2="375" y2="275" class="grid"/>
  <line x1="410" y1="30" x2="410" y2="275" class="grid"/>
  <line x1="445" y1="30" x2="445" y2="275" class="grid"/>
  <line x1="480" y1="30" x2="480" y2="275" class="grid"/>
  <line x1="165" y1="275" x2="480" y2="275" class="grid"/>
  <line x1="165" y1="240" x2="480" y2="240" class="grid"/>
  <line x1="165" y1="205" x2="480" y2="205" class="grid"/>
  <line x1="165" y1="170" x2="480" y2="170" class="grid"/>
  <line x1="165" y1="135" x2="480" y2="135" class="grid"/>
  <line x1="165" y1="100" x2="480" y2="100" class="grid"/>
  <line x1="165" y1="65" x2="480" y2="65" class="grid"/>
  <line x1="165" y1="30" x2="480" y2="30" class="grid"/>
  <line x1="155" y1="240" x2="495" y2="240" class="axis" marker-end="url(#arrowhead)"/>
  <line x1="200" y1="285" x2="200" y2="15" class="axis" marker-end="url(#arrowhead)"/>
  <text x="505" y="240" class="label" text-anchor="middle" dominant-baseline="central">x</text>
  <text x="200" y="3" class="label" text-anchor="middle" dominant-baseline="central">y</text>
  <text x="165" y="256" class="dim" text-anchor="middle" dominant-baseline="central">-1</text>
  <text x="235" y="256" class="dim" text-anchor="middle" dominant-baseline="central">1</text>
  <text x="270" y="256" class="dim" text-anchor="middle" dominant-baseline="central">2</text>
  <text x="305" y="256" class="dim" text-anchor="middle" dominant-baseline="central">3</text>
  <text x="340" y="256" class="dim" text-anchor="middle" dominant-baseline="central">4</text>
  <text x="375" y="256" class="dim" text-anchor="middle" dominant-baseline="central">5</text>
  <text x="410" y="256" class="dim" text-anchor="middle" dominant-baseline="central">6</text>
  <text x="445" y="256" class="dim" text-anchor="middle" dominant-baseline="central">7</text>
  <text x="480" y="256" class="dim" text-anchor="middle" dominant-baseline="central">8</text>
  <text x="184" y="275" class="dim" text-anchor="middle" dominant-baseline="central">-1</text>
  <text x="184" y="205" class="dim" text-anchor="middle" dominant-baseline="central">1</text>
  <text x="184" y="170" class="dim" text-anchor="middle" dominant-baseline="central">2</text>
  <text x="184" y="135" class="dim" text-anchor="middle" dominant-baseline="central">3</text>
  <text x="184" y="100" class="dim" text-anchor="middle" dominant-baseline="central">4</text>
  <text x="184" y="65" class="dim" text-anchor="middle" dominant-baseline="central">5</text>
  <text x="184" y="30" class="dim" text-anchor="middle" dominant-baseline="central">6</text>
  <text x="190" y="254" class="dim" text-anchor="middle" dominant-baseline="central">0</text>
  <circle cx="270" cy="205" r="3.5" class="point"/>
  <text x="278" y="193" class="label" text-anchor="middle" dominant-baseline="central">A(2,1)</text>
  <circle cx="410" cy="65" r="3.5" class="point"/>
  <text x="418" y="53" class="label" text-anchor="middle" dominant-baseline="central">B(6,5)</text>
  <line x1="270" y1="205" x2="410" y2="65" class="shape"/>
  <text x="340" y="135" class="value" text-anchor="middle" dominant-baseline="central">M?</text>
</svg>